 <svg  version="1.0" xmlns="http://www.w3.org/2000/svg"  width="256.000000pt" height="256.000000pt" viewBox="0 0 256.000000 256.000000"  preserveAspectRatio="xMidYMid meet">  <g transform="translate(0.000000,256.000000) scale(0.050000,-0.050000)" fill="#909090" stroke="none"> <path d="M2065 5065 c-985 -167 -1839 -1028 -2014 -2033 -84 -479 -14 -398 153 178 13 44 30 89 39 99 10 10 17 35 17 55 0 207 543 943 845 1146 313 211 506 308 755 382 243 72 340 109 340 130 0 10 50 18 110 18 104 0 110 -3 110 -50 0 -44 -7 -49 -50 -38 -68 17 -112 -3 -97 -43 12 -31 14 -31 31 -1 10 18 27 32 38 32 30 0 13 -110 -17 -112 -48 -5 -50 -8 -26 -36 19 -23 15 -31 -23 -38 -26 -5 -9 -10 39 -11 123 -4 104 -36 -30 -51 -169 -20 -310 -55 -350 -89 -38 -32 -238 -121 -310 -137 -24 -6 -40 -18 -35 -26 5 -9 -13 -21 -40 -28 -32 -8 -50 -27 -50 -52 0 -49 17 -51 52 -5 24 32 27 30 27 -22 1 -49 8 -55 56 -52 30 3 70 -2 89 -10 19 -8 45 -8 59 1 17 11 13 19 -14 30 -37 14 -37 15 4 17 63 2 92 -43 68 -107 -13 -33 -13 -52 -1 -52 37 0 20 -43 -40 -103 -67 -67 -76 -97 -28 -97 20 0 28 -11 21 -29 -16 -43 32 -129 76 -135 35 -5 33 -13 -25 -79 -35 -40 -64 -82 -64 -94 0 -14 -23 -17 -60 -10 -47 9 -60 5 -60 -20 0 -18 -27 -46 -59 -63 -33 -17 -69 -48 -81 -70 -13 -24 -42 -40 -73 -40 -28 0 -87 -29 -132 -64 l-80 -63 45 -37 c42 -34 32 -46 -35 -37 -14 1 -25 -12 -25 -30 0 -38 -143 -189 -179 -189 -12 0 -50 -14 -82 -31 -62 -32 -80 -89 -28 -89 24 0 26 -8 9 -40 -12 -22 -35 -40 -51 -40 -38 0 -37 -18 4 -64 32 -35 31 -38 -27 -60 l-61 -23 37 -67 37 -66 -62 0 c-47 0 -57 -6 -42 -25 13 -17 11 -44 -5 -83 -14 -32 -28 -50 -32 -40 -5 10 -39 45 -76 78 -66 58 -68 55 -30 -40 9 -22 -1 -30 -39 -30 -35 0 -48 -9 -42 -27 6 -14 -1 -26 -16 -26 -32 0 -195 -106 -195 -127 0 -39 55 -60 80 -30 31 37 80 39 80 3 0 -15 -36 -37 -79 -50 -85 -26 -120 -59 -85 -81 36 -22 -4 -61 -50 -49 -27 7 -39 22 -32 39 23 61 -18 24 -45 -40 -21 -53 -23 -83 -7 -130 27 -77 24 -78 110 18 40 44 90 80 112 80 21 0 33 8 27 18 -6 10 7 14 28 8 32 -8 36 -18 20 -48 -16 -30 -14 -38 11 -38 18 0 45 31 61 69 32 76 60 102 79 71 12 -20 148 38 210 90 17 14 65 36 108 50 198 64 378 174 449 275 25 36 55 65 67 65 12 0 9 -14 -7 -34 -15 -19 32 6 103 57 72 50 177 112 235 137 127 54 146 112 31 91 -41 -8 -109 -32 -151 -53 -42 -22 -87 -38 -101 -36 -13 3 -37 -1 -54 -7 -16 -6 -47 -17 -67 -23 -23 -8 -33 -24 -26 -42 7 -17 3 -30 -7 -30 -10 0 -52 -29 -93 -65 -41 -36 -68 -54 -60 -40 10 16 4 25 -16 25 -17 0 -31 -14 -31 -31 0 -18 -14 -28 -35 -25 -20 4 -43 -12 -54 -37 -10 -24 -44 -49 -75 -55 -34 -7 -56 -24 -56 -44 0 -37 -55 -86 -96 -87 -40 -1 99 158 150 171 25 7 46 30 50 55 4 32 18 41 51 37 30 -4 45 4 45 24 0 16 17 41 37 56 21 14 44 47 52 73 11 34 26 44 54 36 46 -12 217 42 217 69 0 10 23 18 51 18 56 0 121 29 166 74 42 42 14 53 -66 26 -40 -13 -86 -18 -103 -12 -16 6 -25 3 -19 -6 17 -28 -153 -102 -233 -102 -70 0 -129 -40 -101 -69 8 -8 6 -13 -5 -10 -45 9 -90 -2 -90 -22 0 -12 10 -15 23 -7 13 8 -6 -28 -42 -80 -35 -52 -95 -109 -132 -126 -37 -18 -64 -38 -60 -45 5 -7 -9 -12 -30 -12 -49 0 -49 21 0 121 21 44 53 130 70 190 38 133 73 187 193 296 51 46 119 122 150 169 105 155 174 178 258 87 92 -99 125 -103 202 -21 72 76 79 109 15 71 -21 -11 -29 -21 -20 -21 36 -2 -34 -61 -71 -61 -33 0 -37 9 -26 62 13 56 10 61 -27 49 -65 -21 -75 63 -22 177 46 97 131 126 155 54 6 -16 0 -22 -13 -14 -15 10 -19 -4 -11 -45 7 -33 3 -64 -10 -72 -42 -26 -23 -71 30 -71 46 0 49 4 27 31 -21 26 -20 37 8 64 31 31 33 31 33 0 0 -41 37 -66 63 -40 27 27 -23 129 -57 116 -34 -13 -34 31 1 78 25 35 30 35 74 5 38 -27 41 -35 15 -45 -20 -7 -28 -27 -21 -51 15 -59 44 -67 85 -22 21 22 50 45 64 52 21 9 21 14 1 24 -14 6 -19 22 -11 35 7 13 -4 10 -25 -6 -22 -16 -32 -22 -24 -12 8 10 -3 30 -25 45 -60 42 -49 99 40 211 84 105 109 215 50 215 -21 0 -30 -21 -30 -65 0 -87 -120 -164 -173 -111 -39 39 -2 126 46 108 24 -10 28 0 17 48 -8 38 -5 60 8 60 12 0 22 -18 22 -40 0 -22 9 -40 21 -40 38 0 45 64 12 121 -25 42 -27 58 -8 66 17 6 15 10 -6 11 -17 1 -55 46 -84 101 l-54 98 61 52 c34 28 71 46 82 39 11 -7 26 -4 33 6 7 11 78 39 157 63 140 42 226 109 226 174 0 15 11 52 24 83 13 31 25 65 26 76 19 168 128 208 253 91 l44 -41 -43 -77 c-24 -43 -78 -113 -121 -156 -47 -47 -94 -124 -121 -197 -24 -66 -57 -148 -73 -183 -33 -71 -41 -137 -11 -89 10 15 27 21 38 15 12 -8 16 3 10 27 -8 31 -1 40 32 40 31 0 42 12 42 49 0 32 9 46 25 40 16 -6 26 12 27 52 1 33 22 81 45 106 24 25 43 57 43 70 0 13 13 29 28 35 36 14 132 157 132 198 0 17 18 30 40 30 29 0 40 -13 40 -50 0 -27 -11 -50 -26 -50 -14 0 -40 -17 -58 -38 -34 -41 -5 -74 57 -65 12 2 29 -17 37 -42 13 -41 15 -41 24 -7 6 20 0 43 -12 51 -13 8 -19 36 -14 62 5 27 10 61 11 75 0 15 9 21 20 15 10 -7 34 14 52 45 49 83 215 82 258 -1 25 -48 25 -55 0 -55 -16 0 -29 10 -29 21 0 12 -9 16 -20 9 -11 -7 -20 -29 -20 -50 0 -48 -75 -120 -124 -120 -20 0 -36 -9 -36 -20 0 -37 89 -20 200 38 61 32 158 72 217 90 l108 31 -14 -64 c-24 -106 -23 -118 13 -142 41 -26 73 -2 40 31 -68 68 29 91 206 49 22 -6 51 -11 65 -11 39 -3 29 -62 -10 -62 -39 0 -205 -83 -205 -103 0 -7 40 -24 89 -39 49 -14 84 -34 78 -43 -6 -10 -23 -13 -38 -7 -16 6 -23 0 -17 -15 7 -18 -12 -23 -66 -18 -53 5 -67 2 -48 -11 32 -23 13 -64 -31 -64 -20 0 -27 11 -20 30 15 38 -8 38 -58 1 -22 -17 -78 -30 -126 -30 -83 -1 -87 -3 -75 -51 7 -29 4 -50 -8 -50 -41 0 -19 103 32 150 48 45 50 51 20 81 -40 40 -72 22 -57 -33 9 -35 4 -40 -29 -30 -30 10 -50 -1 -75 -39 -42 -64 -26 -118 29 -103 29 7 40 0 40 -26 0 -19 -19 -40 -42 -46 -23 -6 -36 -21 -29 -33 7 -11 6 -21 -3 -20 -41 1 -93 163 -58 183 18 10 27 28 20 39 -7 11 -34 -12 -60 -50 -56 -83 -60 -102 -17 -85 18 6 26 3 19 -8 -7 -11 -30 -20 -51 -20 -22 0 -39 -13 -39 -30 0 -16 9 -30 20 -30 11 0 20 -16 21 -35 0 -31 2 -31 22 3 22 38 23 38 50 1 15 -20 27 -26 27 -12 0 19 6 19 28 -1 19 -18 22 -34 8 -50 -22 -28 -5 -66 30 -66 13 -1 46 -18 73 -38 27 -21 62 -33 78 -27 19 8 24 4 15 -12 -8 -12 -43 -23 -79 -23 -35 0 -83 -13 -105 -29 -38 -26 -44 -24 -75 29 l-34 58 -88 -33 c-86 -32 -89 -32 -125 12 -53 66 -166 26 -166 -58 0 -81 141 -148 224 -106 63 32 184 37 166 7 -16 -26 22 -25 74 2 32 17 39 16 32 -5 -6 -17 -45 -28 -108 -30 -149 -4 -276 -30 -245 -50 17 -10 -19 -17 -90 -17 -105 0 -115 -4 -92 -31 23 -28 19 -30 -28 -18 -46 11 -51 8 -40 -22 12 -30 7 -33 -25 -20 -40 18 -49 18 -176 4 -75 -8 -132 -52 -132 -103 0 -21 139 -12 302 20 46 9 78 6 87 -8 17 -28 -161 -142 -222 -142 -25 0 -70 -11 -99 -25 -44 -19 -57 -19 -63 0 -12 37 -74 30 -113 -13 -46 -50 -105 -64 -133 -31 -17 21 -33 22 -71 5 -63 -29 -70 -136 -8 -136 22 0 40 -9 40 -20 0 -34 81 -22 135 20 51 41 158 56 135 20 -7 -11 -5 -20 5 -20 26 0 152 97 172 133 14 25 21 26 34 6 10 -16 1 -45 -22 -75 -21 -27 -34 -57 -28 -66 6 -10 -2 -18 -18 -18 -16 0 -34 -13 -40 -29 -8 -20 -1 -25 21 -17 25 10 30 5 19 -22 -7 -19 -13 -39 -13 -44 0 -4 -22 -8 -50 -8 -27 0 -49 7 -48 15 19 117 -123 -3 -249 -210 -101 -166 -84 -195 202 -366 90 -53 136 -199 63 -199 -10 0 -45 -60 -78 -133 -61 -134 -58 -187 11 -187 15 0 29 -28 33 -65 12 -131 132 -80 186 79 30 87 137 167 175 129 16 -16 13 -32 -11 -59 -45 -49 -42 -122 6 -184 86 -110 57 -160 -95 -160 -158 -1 -284 -50 -337 -130 -69 -106 -33 -120 314 -120 256 0 307 -5 302 -28 -5 -24 -1 -24 25 -3 20 17 31 18 31 4 0 -12 29 -35 65 -50 80 -33 119 -78 119 -138 0 -25 -2 -199 -4 -386 -2 -188 2 -399 9 -470 18 -169 -10 -215 -111 -183 -75 24 -225 -4 -285 -54 -18 -15 -33 -19 -33 -9 0 9 -9 4 -19 -11 -21 -34 -146 -38 -157 -5 -4 13 -15 19 -23 13 -9 -5 -28 4 -41 20 -14 17 -42 30 -63 30 -21 0 -58 12 -83 27 -24 15 -98 38 -164 52 -239 50 -559 183 -554 230 1 10 70 35 153 55 172 40 260 80 289 131 12 19 21 26 22 15 0 -11 43 25 95 81 56 59 140 121 204 150 251 113 501 303 501 382 0 77 -101 44 -300 -97 -27 -20 -60 -33 -72 -31 -12 3 -38 -13 -58 -35 -21 -23 -84 -55 -142 -71 -117 -35 -208 -96 -208 -142 0 -45 -154 -175 -227 -192 -34 -8 -121 -24 -193 -37 -71 -12 -163 -33 -203 -48 -41 -14 -81 -18 -90 -9 -10 10 -53 9 -97 -2 -172 -39 -210 -29 -210 59 0 99 29 121 173 134 143 14 155 15 167 28 6 6 46 28 90 50 134 67 490 439 574 600 41 77 97 171 125 209 58 78 65 121 21 121 -17 0 -82 -71 -146 -157 -369 -504 -685 -776 -871 -750 -66 9 -94 3 -121 -24 -25 -25 -40 -29 -50 -13 -8 13 -82 34 -166 47 -149 23 -152 25 -162 87 -6 35 -60 139 -120 232 -60 92 -134 218 -164 278 -30 61 -72 134 -92 162 -20 29 -31 58 -24 65 7 7 2 13 -10 13 -41 0 -104 154 -104 255 0 53 -13 145 -28 205 -16 60 -23 119 -17 130 6 11 4 13 -5 5 -9 -8 -29 1 -44 20 -82 100 37 -500 154 -781 698 -1679 2909 -2102 4185 -802 1339 1365 734 3709 -1095 4238 -330 95 -849 118 -1225 55z m1935 -425 c26 -17 26 -22 1 -39 -35 -22 -61 -9 -61 30 0 34 18 36 60 9z m82 -232 c17 -16 45 -28 63 -28 77 0 102 -25 52 -52 -26 -15 -35 -27 -21 -27 42 -1 6 -41 -37 -41 -22 0 -39 -9 -39 -20 0 -11 12 -20 27 -20 18 0 23 -19 17 -63 -7 -46 1 -71 27 -90 29 -21 31 -33 13 -51 -19 -19 -29 -19 -48 0 -13 13 -33 24 -43 24 -11 0 -14 -6 -7 -13 8 -7 3 -26 -10 -42 -18 -22 -17 -32 5 -47 19 -12 -2 -14 -59 -5 -64 9 -84 7 -74 -10 9 -15 -1 -23 -28 -23 -36 0 -40 -8 -27 -45 23 -65 16 -157 -12 -175 -34 -20 -13 -29 134 -60 131 -27 141 -35 100 -79 -20 -22 -19 -25 10 -15 24 9 43 -3 62 -39 28 -54 217 -144 229 -109 8 23 273 -122 336 -183 107 -105 128 -121 128 -98 0 56 39 16 52 -52 7 -41 20 -84 28 -95 8 -11 13 -51 11 -90 -4 -91 22 -191 62 -230 48 -48 50 -128 4 -119 -21 4 -33 -1 -27 -11 6 -10 -11 -62 -38 -115 -26 -53 -73 -209 -103 -346 -71 -321 -205 -626 -386 -879 -75 -104 -148 -224 -161 -265 -14 -41 -33 -80 -43 -86 -30 -18 -199 183 -199 236 0 25 -90 155 -184 265 -234 276 -397 553 -385 656 6 55 -19 74 -38 29 -5 -14 -11 54 -11 151 -3 249 -206 554 -370 554 -53 0 -292 207 -292 252 0 91 203 195 380 196 166 1 424 -42 443 -73 30 -48 -21 -63 -93 -29 -39 19 -87 33 -106 33 -25 -1 -22 -6 11 -20 25 -10 45 -23 45 -30 0 -6 -7 -7 -16 -1 -9 5 -81 15 -160 21 -167 12 -158 -28 22 -96 67 -26 128 -74 209 -165 126 -140 139 -175 69 -185 -69 -9 -73 -48 -23 -201 37 -113 51 -135 82 -127 57 15 48 -87 -21 -221 l-58 -114 55 0 c166 0 243 214 147 408 -51 105 -52 114 -27 218 25 104 -43 314 -102 314 -19 0 5 82 39 135 70 110 -38 182 -416 277 -17 4 -62 -9 -100 -30 l-70 -38 -42 52 -42 51 -78 -48 c-43 -26 -116 -83 -162 -125 -163 -150 -166 7 -4 180 99 104 119 145 73 147 -26 1 105 124 172 161 32 19 35 16 24 -20 -10 -29 -6 -39 13 -34 14 5 69 19 121 33 52 13 95 34 95 46 0 12 43 62 95 112 102 98 108 123 49 236 -45 88 -20 124 122 175 100 36 162 78 332 225 57 48 144 45 204 -7z m332 -397 c113 -131 146 -213 146 -363 l0 -133 -55 14 c-30 7 -71 15 -90 17 -19 1 -35 10 -35 18 0 9 -16 16 -35 15 -23 0 -11 -16 36 -45 103 -64 187 -133 175 -145 -23 -22 -211 83 -292 164 -65 65 -103 87 -151 88 -63 2 -63 2 -13 23 l50 22 -55 21 c-69 26 -71 82 -5 125 28 18 50 42 50 52 0 11 22 37 48 58 27 21 55 65 62 97 18 82 78 72 164 -28z m333 -391 c17 -38 59 -110 92 -160 96 -142 65 -179 -33 -40 -31 44 -85 91 -121 104 -40 15 -65 38 -65 59 0 23 10 32 29 25 23 -9 27 3 18 59 -16 98 13 168 33 83 9 -33 29 -91 47 -130z m-2114 -690 c13 -28 14 -45 4 -38 -11 7 22 -43 74 -111 52 -68 111 -134 131 -147 21 -13 38 -38 38 -56 0 -17 34 -49 75 -70 242 -123 305 -196 305 -353 0 -53 18 -147 40 -210 22 -62 40 -129 40 -148 0 -19 18 -40 40 -47 23 -7 63 -57 91 -111 27 -55 59 -99 69 -99 11 0 20 -10 20 -21 0 -20 111 -195 139 -219 6 -5 37 -46 69 -90 32 -44 74 -93 94 -110 44 -37 160 -261 146 -284 -6 -9 -1 -16 11 -16 32 0 25 -60 -9 -73 -16 -6 -30 -23 -30 -36 0 -14 -34 -48 -75 -75 -117 -77 -385 -221 -385 -207 0 7 -19 0 -42 -16 -24 -17 -54 -26 -67 -21 -13 5 -47 1 -75 -10 -86 -32 -121 84 -51 172 13 17 8 35 -13 57 -26 26 -32 82 -32 314 0 318 -26 407 -147 506 -70 58 -113 96 -143 129 -11 12 -37 33 -58 48 -29 20 -37 48 -35 132 1 59 -5 116 -14 128 -9 12 -27 72 -40 134 -26 120 -89 199 -188 236 -46 18 -70 61 -50 89 3 4 -6 20 -19 36 -13 15 -28 54 -34 85 -6 32 -26 74 -46 94 -85 86 -88 94 -50 132 46 46 84 135 84 197 0 100 97 157 133 79z m-213 -139 c0 -53 -24 -91 -58 -91 -77 0 -112 101 -48 137 42 23 106 -5 106 -46z"/> <path d="M3921 4342 c-15 -21 -37 -35 -49 -31 -47 17 -97 -45 -73 -89 24 -46 70 -55 92 -20 9 14 43 18 92 10 47 -8 77 -5 77 8 0 11 -10 20 -23 20 -14 0 -10 15 10 37 31 34 31 39 -3 70 -49 43 -89 42 -123 -5z"/> <path d="M4014 4167 c-8 -7 -4 -25 9 -40 17 -21 15 -27 -9 -27 -18 0 -38 -10 -45 -22 -10 -16 6 -18 53 -8 84 18 79 13 65 66 -11 43 -47 58 -73 31z"/> <path d="M3863 4002 c-21 -13 -20 -19 5 -29 40 -15 96 5 81 29 -14 22 -51 23 -86 0z"/> <path d="M3135 3568 c-174 -34 -242 -67 -185 -89 79 -30 330 50 330 105 0 9 -2 15 -5 14 -3 -2 -66 -15 -140 -30z"/> <path d="M3880 3579 c0 -10 25 -19 55 -19 38 -1 47 -6 28 -18 -20 -12 -15 -20 20 -29 47 -12 117 33 91 59 -21 22 -194 28 -194 7z"/> <path d="M4512 3243 c-13 -20 124 -134 141 -117 20 20 -14 90 -49 102 -19 7 -44 17 -57 23 -13 6 -29 3 -35 -8z"/> <path d="M4694 3086 c-5 -9 -1 -38 9 -64 21 -56 66 -31 54 29 -8 39 -48 61 -63 35z"/> <path d="M3090 2910 c82 -70 110 -84 110 -52 0 29 -120 122 -157 122 -22 0 -7 -23 47 -70z"/> <path d="M3041 4881 c-26 -16 -25 -21 5 -32 52 -20 40 -49 -21 -49 l-55 0 59 -31 c55 -29 62 -28 84 2 45 61 -12 148 -72 110z"/> <path d="M3026 4608 c-12 -32 23 -67 69 -68 34 0 31 31 -6 69 -40 39 -47 39 -63 -1z"/> <path d="M2906 4551 c-28 -32 -14 -51 37 -51 41 0 42 3 25 48 -15 39 -30 39 -62 3z"/> <path d="M2788 4444 c-35 -29 -37 -40 -15 -60 31 -29 36 -64 9 -64 -9 0 -28 14 -42 30 -36 44 -64 37 -56 -15 3 -26 22 -47 46 -51 22 -3 54 -12 70 -18 17 -7 39 -13 50 -14 11 -1 23 -22 26 -47 4 -25 15 -45 25 -45 18 0 27 29 21 65 -1 8 19 15 45 15 62 0 76 17 51 63 -15 29 -28 33 -58 17 -54 -29 -80 -25 -80 12 0 26 6 28 27 10 21 -17 34 -15 53 8 14 17 22 33 18 36 -4 2 -37 24 -72 49 -76 53 -66 52 -118 9z"/> <path d="M2545 4200 c-39 -62 -31 -120 15 -120 26 0 40 13 40 39 0 21 9 44 21 52 14 8 14 21 -2 41 -32 37 -45 35 -74 -12z"/> <path d="M2700 4062 c0 -10 -5 -33 -12 -50 -8 -21 -1 -32 19 -32 40 0 56 28 41 68 -13 34 -48 44 -48 14z"/> <path d="M2440 4012 c0 -38 -42 -42 -76 -8 -19 19 -24 12 -24 -28 0 -28 14 -57 30 -63 17 -7 30 -37 30 -69 0 -50 7 -57 60 -57 64 0 81 26 29 46 -21 8 -24 19 -9 37 11 14 15 40 8 57 -8 22 -2 33 20 33 18 0 32 -9 32 -21 0 -36 58 -44 91 -11 41 42 24 65 -56 77 -36 5 -81 16 -100 24 -25 11 -35 6 -35 -17z"/> <path d="M1595 3852 c-19 -15 -35 -37 -35 -49 0 -13 -16 -23 -35 -23 -25 0 -36 -17 -37 -60 -1 -33 5 -60 14 -60 9 0 11 -15 4 -33 -8 -22 -4 -30 16 -23 15 5 34 40 40 78 11 61 13 62 15 13 2 -42 13 -55 45 -55 36 0 39 5 18 30 -14 17 -19 31 -12 33 6 1 21 4 32 7 11 3 26 6 34 8 8 1 4 12 -9 25 -17 17 -15 30 6 51 66 66 -18 116 -96 58z"/> <path d="M2551 3841 c-6 -10 -2 -24 9 -31 12 -7 16 -33 10 -57 -12 -42 -11 -42 29 4 23 26 41 60 41 75 0 31 -71 39 -89 9z"/> <path d="M2109 3390 c-36 -27 -16 -71 31 -69 42 1 87 62 60 79 -40 26 -46 25 -91 -10z"/> <path d="M585 1884 c-63 -30 -86 -64 -44 -64 36 0 139 60 139 81 0 24 -14 22 -95 -17z"/> </g> </svg> 